<?xml version="1.0" encoding="utf-8"?>
<!-- Generator: Adobe Illustrator 22.0.0, SVG Export Plug-In . SVG Version: 6.00 Build 0)  -->
<svg version="1.1" id="Layer_1" xmlns="http://www.w3.org/2000/svg" xmlns:xlink="http://www.w3.org/1999/xlink" x="0px" y="0px"
	 viewBox="0 0 300 300" style="enable-background:new 0 0 300 300;" xml:space="preserve">
<style type="text/css">
	.st0{stroke:#000000;stroke-width:0.2;stroke-miterlimit:10;}
	.st1{fill:#FF5F64;}
</style>
<path class="st0" d="M210.6,130.2c-0.4-0.5-0.7-0.8-1.1-1.2c-0.6-0.7-1.1-1.5-1.8-2.2c-12.6-12.7-23.9-26.7-33.6-41.6
	c-5.4-8.3-10.5-17.1-18.1-23.4c-1.8-1.5-3.9-3-6.2-3.4c-3.1-0.6-6.3,0.5-9.3,1.7c-20.2,8.6-36.3,24.3-51.9,39.8
	c-3.3,3.3-6.6,6.5-9.9,9.8c-2.6,2.6-5.5,6.1-4.2,9.6c0.5,1.3,1.6,2.4,2.2,3.7c1,2.1,0.7,4.6,0.3,6.9c-6.4,41.9-7.3,84.6-2.7,126.7
	c0.2,1.5,0.4,3.1,1.3,4.2c1.2,1.5,3.2,2,5,2.4c11.8,2.5,23.9,3.2,35.8,2c6.5-0.6,13-1.8,19.6-2.2c2.1-0.1,4.3-0.1,6.3,0.6
	c4.8,1.8,7.3,6.9,8.7,11.9c-27.4,4.4-55.7-3.1-83.1,1.4c-3.1,0.5-6.4,1.2-9.5,0.3c-3-0.9-5.7-4.1-4.8-7.2c0.4-1.3,1.4-2.3,2-3.5
	c1.6-2.8,1.8-6.1,1.9-9.3c1-36.9,2-73.8,2.9-110.7c0.1-3.2-0.1-6.8-2.6-8.7c-1.7-1.3-4-1.4-6.1-1.6c-8.1-0.7-16-3.4-22.8-7.7
	c-2.4-1.5-4.8-3.4-6.2-5.9c-1.3-2.6-1.3-6,0.7-8.1c1.5-1.6,3.8-2.1,5.9-2.7c9.8-3,17.7-10.2,25.2-17.2c11.5-10.7,22.9-21.4,34.4-32
	c8-7.4,16-14.9,22.6-23.6c3-3.9,5.7-8.2,9.5-11.4c3.8-3.2,8.9-5.3,13.7-4c9.6,2.5,18.7,6.1,25.1,13.7s10.7,16.7,16.2,24.9
	c3.5,5.2,7.5,10,11.1,15.2c5.5,7.9,10.1,16.6,16.2,24.1c5,6.1,11,11.3,16.5,17c9.2,9.7,16.8,20.9,26.4,30.1c10,9.6,22,16.9,31.5,27
	c-10.4,2.3-22.3,3.7-33,3.6c-0.7,0-1.3,0-1.9-0.3c-0.6-0.3-1.1-0.8-1.6-1.2c-0.8-0.8-1.6-1.6-2.4-2.4c-0.7-0.7-1-1.6-1.6-2.4
	c-0.4-0.5-0.6-1-0.7-1.7"/>
<path class="st1" d="M154.8,139.6c-5.9-7.4-14.7-12.9-24.2-13.6c-12.9-0.9-25.1,7.4-32.2,18.2s-9.8,23.9-11.5,36.7
	c-1.9,14.1-2.5,29.5,5.2,41.4c7.2,11.1,20,16.9,31.2,24c6.1,3.9,11.9,8.3,17.3,13.1c5.1,4.7,10.1,10.1,11.4,16.9
	c15.9-30.1,56.1-40.1,73.7-69.3c7.2-12,9.9-26.2,11.2-40.1c1-10.7,0.7-22.9-6.9-30.5c-6.7-6.6-17.5-7.6-26.3-4.6
	c-8.9,3.1-16.2,9.5-22.5,16.4c-3,3.3-5.8,6.6-8.5,10.1c-1.6,2.1-4.5,7.7-7.3,3.7c-2.1-2.9-2.5-8.2-3.9-11.6
	C159.6,146.7,157.4,143,154.8,139.6z"/>
</svg>
